<?xml version="1.0" encoding="UTF-8" standalone="no"?>
<svg
   version="1.1"
   width="2500"
   height="500"
   id="svg1310"
   sodipodi:docname="TETH_icon.svg"
   inkscape:version="1.1 (c68e22c387, 2021-05-23)"
   xmlns:inkscape="http://www.inkscape.org/namespaces/inkscape"
   xmlns:sodipodi="http://sodipodi.sourceforge.net/DTD/sodipodi-0.dtd"
   xmlns="http://www.w3.org/2000/svg"
   xmlns:svg="http://www.w3.org/2000/svg">
  <sodipodi:namedview
     id="namedview1312"
     pagecolor="#ffffff"
     bordercolor="#666666"
     borderopacity="1.0"
     inkscape:pageshadow="2"
     inkscape:pageopacity="0.0"
     inkscape:pagecheckerboard="0"
     showgrid="false"
     inkscape:zoom="1.0931871"
     inkscape:cx="295.46635"
     inkscape:cy="321.53691"
     inkscape:window-width="1920"
     inkscape:window-height="991"
     inkscape:window-x="-9"
     inkscape:window-y="-9"
     inkscape:window-maximized="1"
     inkscape:current-layer="g1308" />
  <defs
     id="defs1069" />
  <g
     transform="scale(0.75291074)"
     id="g1308">
    <g
       id="background-images-ccd80bdb" />
    <g
       id="graphpaper-ccd80bdb">
      <g
         id="axis-ccd80bdb">
        <g
           id="g1079">
          <g
             id="g1077">
            <path
               fill="none"
               stroke="#000000"
               class="dcg-svg-tickmark"
               paint-order="fill stroke markers"
               d=""
               stroke-opacity="0.9"
               stroke-miterlimit="2"
               stroke-width="2"
               stroke-dasharray="none"
               id="path1075" />
          </g>
        </g>
      </g>
    </g>
    <g
       id="sketch-ccd80bdb"
       transform="matrix(0.63166544,0,0,0.63166544,9.2083637,9.2144605)">
      <title
         id="title1083">Expression 1</title>
      <path
         fill="#000000"
         stroke="none"
         paint-order="stroke fill markers"
         d=""
         fill-opacity="0.4"
         id="path1085" />
      <g
         id="g1089">
        <path
           fill="none"
           stroke="#000000"
           class="dcg-svg-curve"
           paint-order="fill stroke markers"
           d="m 180,830.45423 v 0 -660.90846"
           stroke-linecap="round"
           stroke-linejoin="round"
           stroke-miterlimit="10"
           stroke-width="10"
           stroke-opacity="0.9"
           stroke-dasharray="none"
           id="path1087" />
      </g>
    </g>
    <path
       fill="#000000"
       stroke="none"
       paint-order="stroke fill markers"
       d=""
       fill-opacity="0.4"
       id="path1094"
       style="stroke-width:0.631665" />
    <path
       fill="#000000"
       stroke="none"
       paint-order="stroke fill markers"
       d=""
       fill-opacity="0.4"
       id="path1096"
       style="stroke-width:0.631665" />
    <path
       fill="#000000"
       stroke="none"
       paint-order="stroke fill markers"
       d=""
       fill-opacity="0.4"
       id="path1098"
       style="stroke-width:0.631665" />
    <path
       fill="#000000"
       stroke="none"
       paint-order="stroke fill markers"
       d=""
       fill-opacity="0.4"
       id="path1100"
       style="stroke-width:0.631665" />
    <path
       fill="#000000"
       stroke="none"
       paint-order="stroke fill markers"
       d=""
       fill-opacity="0.4"
       id="path1102"
       style="stroke-width:0.631665" />
    <path
       fill="#000000"
       stroke="none"
       paint-order="stroke fill markers"
       d=""
       fill-opacity="0.4"
       id="path1104"
       style="stroke-width:0.631665" />
    <path
       fill="#000000"
       stroke="none"
       paint-order="stroke fill markers"
       d=""
       fill-opacity="0.4"
       id="path1106"
       style="stroke-width:0.631665" />
    <path
       fill="#000000"
       stroke="none"
       paint-order="stroke fill markers"
       d=""
       fill-opacity="0.4"
       id="path1108"
       style="stroke-width:0.631665" />
    <path
       fill="#000000"
       stroke="none"
       paint-order="stroke fill markers"
       d=""
       fill-opacity="0.4"
       id="path1110"
       style="stroke-width:0.631665" />
    <path
       fill="#000000"
       stroke="none"
       paint-order="stroke fill markers"
       d=""
       fill-opacity="0.4"
       id="path1112"
       style="stroke-width:0.631665" />
    <path
       fill="#000000"
       stroke="none"
       paint-order="stroke fill markers"
       d=""
       fill-opacity="0.4"
       id="path1114"
       style="stroke-width:0.631665" />
    <path
       fill="#000000"
       stroke="none"
       paint-order="stroke fill markers"
       d=""
       fill-opacity="0.4"
       id="path1116"
       style="stroke-width:0.631665" />
    <path
       fill="#000000"
       stroke="none"
       paint-order="stroke fill markers"
       d=""
       fill-opacity="0.4"
       id="path1118"
       style="stroke-width:0.631665" />
    <path
       fill="#000000"
       stroke="none"
       paint-order="stroke fill markers"
       d=""
       fill-opacity="0.4"
       id="path1120"
       style="stroke-width:0.631665" />
    <path
       fill="#000000"
       stroke="none"
       paint-order="stroke fill markers"
       d=""
       fill-opacity="0.4"
       id="path1122"
       style="stroke-width:0.631665" />
    <path
       fill="#000000"
       stroke="none"
       paint-order="stroke fill markers"
       d=""
       fill-opacity="0.4"
       id="path1124"
       style="stroke-width:0.631665" />
    <path
       fill="#000000"
       stroke="none"
       paint-order="stroke fill markers"
       d=""
       fill-opacity="0.4"
       id="path1126"
       style="stroke-width:0.631665" />
    <path
       fill="#000000"
       stroke="none"
       paint-order="stroke fill markers"
       d=""
       fill-opacity="0.4"
       id="path1128"
       style="stroke-width:0.631665" />
    <path
       fill="#000000"
       stroke="none"
       paint-order="stroke fill markers"
       d=""
       fill-opacity="0.4"
       id="path1130"
       style="stroke-width:0.631665" />
    <path
       fill="#000000"
       stroke="none"
       paint-order="stroke fill markers"
       d=""
       fill-opacity="0.4"
       id="path1132"
       style="stroke-width:0.631665" />
    <path
       fill="#000000"
       stroke="none"
       paint-order="stroke fill markers"
       d=""
       fill-opacity="0.4"
       id="path1134"
       style="stroke-width:0.631665" />
    <path
       fill="#000000"
       stroke="none"
       paint-order="stroke fill markers"
       d=""
       fill-opacity="0.4"
       id="path1136"
       style="stroke-width:0.631665" />
    <path
       fill="#000000"
       stroke="none"
       paint-order="stroke fill markers"
       d=""
       fill-opacity="0.4"
       id="path1138"
       style="stroke-width:0.631665" />
    <path
       fill="#000000"
       stroke="none"
       paint-order="stroke fill markers"
       d=""
       fill-opacity="0.4"
       id="path1140"
       style="stroke-width:0.631665" />
    <path
       fill="#000000"
       stroke="none"
       paint-order="stroke fill markers"
       d=""
       fill-opacity="0.4"
       id="path1142"
       style="stroke-width:0.631665" />
    <path
       fill="#000000"
       stroke="none"
       paint-order="stroke fill markers"
       d=""
       fill-opacity="0.4"
       id="path1144"
       style="stroke-width:0.631665" />
    <path
       fill="#000000"
       stroke="none"
       paint-order="stroke fill markers"
       d=""
       fill-opacity="0.4"
       id="path1146"
       style="stroke-width:0.631665" />
    <path
       fill="#000000"
       stroke="none"
       paint-order="stroke fill markers"
       d=""
       fill-opacity="0.4"
       id="path1148"
       style="stroke-width:0.631665" />
    <path
       fill="#000000"
       stroke="none"
       paint-order="stroke fill markers"
       d=""
       fill-opacity="0.4"
       id="path1150"
       style="stroke-width:0.631665" />
    <g
       id="g1154"
       transform="matrix(0.63166544,0,0,0.63166544,9.2083637,9.2144605)">
      <path
         fill="none"
         stroke="#000000"
         class="dcg-svg-curve"
         paint-order="fill stroke markers"
         d="m 71.877395,668.25883 v 0 L 358.98233,62.148407"
         stroke-linecap="round"
         stroke-linejoin="round"
         stroke-miterlimit="10"
         stroke-width="10"
         stroke-opacity="0.9"
         stroke-dasharray="none"
         id="path1152" />
    </g>
    <g
       id="g1158"
       transform="matrix(0.63166544,0,0,0.63166544,9.2083637,9.2144605)">
      <path
         fill="none"
         stroke="#000000"
         class="dcg-svg-curve"
         paint-order="fill stroke markers"
         d="m 79.418267,686.3089 v 0 L 356.45802,62.969451"
         stroke-linecap="round"
         stroke-linejoin="round"
         stroke-miterlimit="10"
         stroke-width="10"
         stroke-opacity="0.9"
         stroke-dasharray="none"
         id="path1156" />
    </g>
    <g
       id="g1162"
       transform="matrix(0.63166544,0,0,0.63166544,9.2083637,9.2144605)">
      <path
         fill="none"
         stroke="#000000"
         class="dcg-svg-curve"
         paint-order="fill stroke markers"
         d="m 87.739334,704.06162 v 0 L 350.95889,64.814123"
         stroke-linecap="round"
         stroke-linejoin="round"
         stroke-miterlimit="10"
         stroke-width="10"
         stroke-opacity="0.9"
         stroke-dasharray="none"
         id="path1160" />
    </g>
    <g
       id="g1166"
       transform="matrix(0.63166544,0,0,0.63166544,9.2083637,9.2144605)">
      <path
         fill="none"
         stroke="#000000"
         class="dcg-svg-curve"
         paint-order="fill stroke markers"
         d="m 96.898074,721.60514 v 0 L 342.00604,67.983904"
         stroke-linecap="round"
         stroke-linejoin="round"
         stroke-miterlimit="10"
         stroke-width="10"
         stroke-opacity="0.9"
         stroke-dasharray="none"
         id="path1164" />
    </g>
    <g
       id="g1170"
       transform="matrix(0.63166544,0,0,0.63166544,9.2083637,9.2144605)">
      <path
         fill="none"
         stroke="#000000"
         class="dcg-svg-curve"
         paint-order="fill stroke markers"
         d="m 106.98649,739.04054 v 0 L 329.01351,72.959462"
         stroke-linecap="round"
         stroke-linejoin="round"
         stroke-miterlimit="10"
         stroke-width="10"
         stroke-opacity="0.9"
         stroke-dasharray="none"
         id="path1168" />
    </g>
    <g
       id="g1174"
       transform="matrix(0.63166544,0,0,0.63166544,9.2083637,9.2144605)">
      <path
         fill="none"
         stroke="#000000"
         class="dcg-svg-curve"
         paint-order="fill stroke markers"
         d="m 118.14564,756.49025 v 0 L 311.28832,80.49088"
         stroke-linecap="round"
         stroke-linejoin="round"
         stroke-miterlimit="10"
         stroke-width="10"
         stroke-opacity="0.9"
         stroke-dasharray="none"
         id="path1172" />
    </g>
    <g
       id="g1178"
       transform="matrix(0.63166544,0,0,0.63166544,9.2083637,9.2144605)">
      <path
         fill="none"
         stroke="#000000"
         class="dcg-svg-curve"
         paint-order="fill stroke markers"
         d="m 130.59001,774.10994 v 0 L 288.06167,91.732753"
         stroke-linecap="round"
         stroke-linejoin="round"
         stroke-miterlimit="10"
         stroke-width="10"
         stroke-opacity="0.9"
         stroke-dasharray="none"
         id="path1176" />
    </g>
    <g
       id="g1182"
       transform="matrix(0.63166544,0,0,0.63166544,9.2083637,9.2144605)">
      <path
         fill="none"
         stroke="#000000"
         class="dcg-svg-curve"
         paint-order="fill stroke markers"
         d="m 144.64906,792.10565 v 0 L 258.59418,108.43489"
         stroke-linecap="round"
         stroke-linejoin="round"
         stroke-miterlimit="10"
         stroke-width="10"
         stroke-opacity="0.9"
         stroke-dasharray="none"
         id="path1180" />
    </g>
    <g
       id="g1186"
       transform="matrix(0.63166544,0,0,0.63166544,9.2083637,9.2144605)">
      <path
         fill="none"
         stroke="#000000"
         class="dcg-svg-curve"
         paint-order="fill stroke markers"
         d="m 160.84017,810.75812 v 0 L 222.43852,133.1763"
         stroke-linecap="round"
         stroke-linejoin="round"
         stroke-miterlimit="10"
         stroke-width="10"
         stroke-opacity="0.9"
         stroke-dasharray="none"
         id="path1184" />
    </g>
    <g
       id="g1190"
       transform="matrix(0.63166544,0,0,0.63166544,9.2083637,9.2144605)">
      <path
         fill="none"
         stroke="#000000"
         class="dcg-svg-curve"
         paint-order="fill stroke markers"
         d="m 133.54955,221.94593 v 0 l 69.97407,629.76668"
         stroke-linecap="round"
         stroke-linejoin="round"
         stroke-miterlimit="10"
         stroke-width="10"
         stroke-opacity="0.9"
         stroke-dasharray="none"
         id="path1188" />
    </g>
    <g
       id="g1194"
       transform="matrix(0.63166544,0,0,0.63166544,9.2083637,9.2144605)">
      <path
         fill="none"
         stroke="#000000"
         class="dcg-svg-curve"
         paint-order="fill stroke markers"
         d="m 88.568122,294.27249 v 0 L 233.78482,875.13928"
         stroke-linecap="round"
         stroke-linejoin="round"
         stroke-miterlimit="10"
         stroke-width="10"
         stroke-opacity="0.9"
         stroke-dasharray="none"
         id="path1192" />
    </g>
    <g
       id="g1198"
       transform="matrix(0.63166544,0,0,0.63166544,9.2083637,9.2144605)">
      <path
         fill="none"
         stroke="#000000"
         class="dcg-svg-curve"
         paint-order="fill stroke markers"
         d="m 54.219319,386.51174 v 0 L 274.7462,901.07446"
         stroke-linecap="round"
         stroke-linejoin="round"
         stroke-miterlimit="10"
         stroke-width="10"
         stroke-opacity="0.9"
         stroke-dasharray="none"
         id="path1196" />
    </g>
    <g
       id="g1202"
       transform="matrix(0.63166544,0,0,0.63166544,9.2083637,9.2144605)">
      <path
         fill="none"
         stroke="#000000"
         class="dcg-svg-curve"
         paint-order="fill stroke markers"
         d="m 40.105301,490.15795 v 0 L 332.20239,928.30359"
         stroke-linecap="round"
         stroke-linejoin="round"
         stroke-miterlimit="10"
         stroke-width="10"
         stroke-opacity="0.9"
         stroke-dasharray="none"
         id="path1200" />
    </g>
    <g
       id="g1206"
       transform="matrix(0.63166544,0,0,0.63166544,9.2083637,9.2144605)">
      <path
         fill="none"
         stroke="#000000"
         class="dcg-svg-curve"
         paint-order="fill stroke markers"
         d="m 48.616429,588.61643 v 0 L 411.38357,951.38357"
         stroke-linecap="round"
         stroke-linejoin="round"
         stroke-miterlimit="10"
         stroke-width="10"
         stroke-opacity="0.9"
         stroke-dasharray="none"
         id="path1204" />
    </g>
    <g
       id="g1210"
       transform="matrix(0.63166544,0,0,0.63166544,9.2083637,9.2144605)">
      <path
         fill="none"
         stroke="#000000"
         class="dcg-svg-curve"
         paint-order="fill stroke markers"
         d="m 71.696413,667.79761 v 0 L 509.84205,959.8947"
         stroke-linecap="round"
         stroke-linejoin="round"
         stroke-miterlimit="10"
         stroke-width="10"
         stroke-opacity="0.9"
         stroke-dasharray="none"
         id="path1208" />
    </g>
    <g
       id="g1214"
       transform="matrix(0.63166544,0,0,0.63166544,9.2083637,9.2144605)">
      <path
         fill="none"
         stroke="#000000"
         class="dcg-svg-curve"
         paint-order="fill stroke markers"
         d="m 98.925537,725.2538 v 0 L 613.48826,945.78068"
         stroke-linecap="round"
         stroke-linejoin="round"
         stroke-miterlimit="10"
         stroke-width="10"
         stroke-opacity="0.9"
         stroke-dasharray="none"
         id="path1212" />
    </g>
    <g
       id="g1218"
       transform="matrix(0.63166544,0,0,0.63166544,9.2083637,9.2144605)">
      <path
         fill="none"
         stroke="#000000"
         class="dcg-svg-curve"
         paint-order="fill stroke markers"
         d="m 124.86072,766.21518 v 0 l 580.86679,145.2167"
         stroke-linecap="round"
         stroke-linejoin="round"
         stroke-miterlimit="10"
         stroke-width="10"
         stroke-opacity="0.9"
         stroke-dasharray="none"
         id="path1216" />
    </g>
    <g
       id="g1222"
       transform="matrix(0.63166544,0,0,0.63166544,9.2083637,9.2144605)">
      <path
         fill="none"
         stroke="#000000"
         class="dcg-svg-curve"
         paint-order="fill stroke markers"
         d="m 148.28739,796.47638 v 0 l 629.76668,69.97407"
         stroke-linecap="round"
         stroke-linejoin="round"
         stroke-miterlimit="10"
         stroke-width="10"
         stroke-opacity="0.9"
         stroke-dasharray="none"
         id="path1220" />
    </g>
    <g
       id="g1226"
       transform="matrix(0.63166544,0,0,0.63166544,9.2083637,9.2144605)">
      <path
         fill="none"
         stroke="#000000"
         class="dcg-svg-curve"
         paint-order="fill stroke markers"
         d="m 169.54577,820 v 0 h 660.90846"
         stroke-linecap="round"
         stroke-linejoin="round"
         stroke-miterlimit="10"
         stroke-width="10"
         stroke-opacity="0.9"
         stroke-dasharray="none"
         id="path1224" />
    </g>
    <g
       id="g1230"
       transform="matrix(0.63166544,0,0,0.63166544,9.2083637,9.2144605)">
      <path
         fill="none"
         stroke="#000000"
         class="dcg-svg-curve"
         paint-order="fill stroke markers"
         d="m 189.24188,839.15983 v 0 L 866.8237,777.56148"
         stroke-linecap="round"
         stroke-linejoin="round"
         stroke-miterlimit="10"
         stroke-width="10"
         stroke-opacity="0.9"
         stroke-dasharray="none"
         id="path1228" />
    </g>
    <g
       id="g1234"
       transform="matrix(0.63166544,0,0,0.63166544,9.2083637,9.2144605)">
      <path
         fill="none"
         stroke="#000000"
         class="dcg-svg-curve"
         paint-order="fill stroke markers"
         d="m 207.89435,855.35094 v 0 L 891.56511,741.40582"
         stroke-linecap="round"
         stroke-linejoin="round"
         stroke-miterlimit="10"
         stroke-width="10"
         stroke-opacity="0.9"
         stroke-dasharray="none"
         id="path1232" />
    </g>
    <g
       id="g1238"
       transform="matrix(0.63166544,0,0,0.63166544,9.2083637,9.2144605)">
      <path
         fill="none"
         stroke="#000000"
         class="dcg-svg-curve"
         paint-order="fill stroke markers"
         d="m 225.89006,869.40999 v 0 L 908.26725,711.93833"
         stroke-linecap="round"
         stroke-linejoin="round"
         stroke-miterlimit="10"
         stroke-width="10"
         stroke-opacity="0.9"
         stroke-dasharray="none"
         id="path1236" />
    </g>
    <g
       id="g1242"
       transform="matrix(0.63166544,0,0,0.63166544,9.2083637,9.2144605)">
      <path
         fill="none"
         stroke="#000000"
         class="dcg-svg-curve"
         paint-order="fill stroke markers"
         d="m 243.50975,881.85436 v 0 L 919.50912,688.71168"
         stroke-linecap="round"
         stroke-linejoin="round"
         stroke-miterlimit="10"
         stroke-width="10"
         stroke-opacity="0.9"
         stroke-dasharray="none"
         id="path1240" />
    </g>
    <g
       id="g1246"
       transform="matrix(0.63166544,0,0,0.63166544,9.2083637,9.2144605)">
      <path
         fill="none"
         stroke="#000000"
         class="dcg-svg-curve"
         paint-order="fill stroke markers"
         d="m 260.95946,893.01351 v 0 L 927.04054,670.98649"
         stroke-linecap="round"
         stroke-linejoin="round"
         stroke-miterlimit="10"
         stroke-width="10"
         stroke-opacity="0.9"
         stroke-dasharray="none"
         id="path1244" />
    </g>
    <g
       id="g1250"
       transform="matrix(0.63166544,0,0,0.63166544,9.2083637,9.2144605)">
      <path
         fill="none"
         stroke="#000000"
         class="dcg-svg-curve"
         paint-order="fill stroke markers"
         d="m 278.39486,903.10193 v 0 L 932.0161,657.99396"
         stroke-linecap="round"
         stroke-linejoin="round"
         stroke-miterlimit="10"
         stroke-width="10"
         stroke-opacity="0.9"
         stroke-dasharray="none"
         id="path1248" />
    </g>
    <g
       id="g1254"
       transform="matrix(0.63166544,0,0,0.63166544,9.2083637,9.2144605)">
      <path
         fill="none"
         stroke="#000000"
         class="dcg-svg-curve"
         paint-order="fill stroke markers"
         d="m 295.93838,912.26067 v 0 l 639.2475,-263.21956"
         stroke-linecap="round"
         stroke-linejoin="round"
         stroke-miterlimit="10"
         stroke-width="10"
         stroke-opacity="0.9"
         stroke-dasharray="none"
         id="path1252" />
    </g>
    <g
       id="g1258"
       transform="matrix(0.63166544,0,0,0.63166544,9.2083637,9.2144605)">
      <path
         fill="none"
         stroke="#000000"
         class="dcg-svg-curve"
         paint-order="fill stroke markers"
         d="m 313.6911,920.58173 v 0 L 937.03055,643.54198"
         stroke-linecap="round"
         stroke-linejoin="round"
         stroke-miterlimit="10"
         stroke-width="10"
         stroke-opacity="0.9"
         stroke-dasharray="none"
         id="path1256" />
    </g>
    <g
       id="g1262"
       transform="matrix(0.63166544,0,0,0.63166544,9.2083637,9.2144605)">
      <path
         fill="none"
         stroke="#000000"
         class="dcg-svg-curve"
         paint-order="fill stroke markers"
         d="m 331.74117,928.12261 v 0 L 937.85159,641.01767"
         stroke-linecap="round"
         stroke-linejoin="round"
         stroke-miterlimit="10"
         stroke-width="10"
         stroke-opacity="0.9"
         stroke-dasharray="none"
         id="path1260" />
    </g>
    <g
       id="g1274"
       transform="matrix(0.63166544,0,0,0.63166544,9.2083637,9.2144605)">
      <title
         id="title1266">Expression 4</title>
      <path
         fill="#000000"
         stroke="none"
         paint-order="stroke fill markers"
         d=""
         fill-opacity="0.4"
         id="path1268" />
      <g
         id="g1272">
        <path
           fill="none"
           stroke="#000000"
           class="dcg-svg-curve"
           paint-order="fill stroke markers"
           d="m 517.74979,617.27667 v 0 l -7.32783,-3.08318 -4.39176,-1.30181 -6.0302,-1.20772 -4.33907,-0.48886 -13.3231,0.30682 -11.02244,2.17706 -6.81496,2.18575 -8.8749,3.79938 -9.05285,4.98494 -12.77209,8.9035 -10.58325,8.9035 -11.96627,11.33178 -7.32109,7.14229 -19.14736,-18.47407 -9.03112,-7.67829 -5.73469,-4.37554 -12.0151,-7.77067 -10.54811,-5.2074 -7.20168,-2.68036 -12.87919,-3.01546 -9.02198,-0.72152 -1.023,-0.007 -7.93838,0.49393 -4.63702,0.76096 -9.55566,2.80761 -1.66953,0.68296 -6.5246,3.32209 -7.68117,5.58142 -5.01973,5.06516 -1.56821,1.91862 -3.48067,5.11592 -2.88606,5.7073 -1.67465,4.57541 -1.60277,7.04825 -0.50487,6.18335 0.35088,6.52458 1.16969,6.11805 2.69447,7.6256 3.52095,6.44228 3.30866,4.5131 4.49859,4.78407 4.64315,3.85172 7.59205,4.65812 5.51459,2.41747 3.6337,1.22795 8.58422,1.90427 11.68894,0.62723 5.89556,-0.46141 9.59699,-1.8031 4.97505,-1.43662 10.57306,-4.17943 7.17673,-3.70856 10.86597,-6.94431 6.88382,-5.20158 16.44843,-14.58333 11.35471,-11.19384 1.04026,0.14513 11.64737,11.47233 9.26506,8.51207 3.49352,2.99111 17.74979,12.89345 3.77681,2.20665 13.97298,6.46935 8.87489,2.72044 8.87489,1.63157 6.5316,0.48769 11.21819,-0.65893 4.10755,-0.75289 7.40261,-2.13895 6.23963,-2.70092 5.56879,-3.2596 3.3061,-2.40475 6.2389,-5.82648 4.27166,-5.43855 3.00605,-5.06729 2.08955,-4.65668 2.54748,-9.30866 0.64124,-8.16261 -0.98031,-9.17425 -2.80598,-8.9685 -2.00085,-4.14616 -4.13285,-6.37458 -3.34257,-3.93291 -5.53232,-5.06161 -4.19493,-2.98679 -4.67996,-2.67733"
           stroke-linecap="round"
           stroke-linejoin="round"
           stroke-miterlimit="10"
           stroke-width="10"
           stroke-opacity="0.9"
           stroke-dasharray="none"
           id="path1270" />
      </g>
    </g>
    <g
       id="g1288"
       transform="matrix(0.63166544,0,0,0.63166544,9.2083637,9.2144605)">
      <title
         id="title1276">Expression 5</title>
      <path
         fill="#000000"
         stroke="none"
         paint-order="stroke fill markers"
         d=""
         fill-opacity="0.4"
         id="path1278" />
      <g
         id="g1282">
        <path
           fill="none"
           stroke="#000000"
           class="dcg-svg-curve"
           paint-order="fill stroke markers"
           d="m 482.25021,245.22733 v 0 l -8.87489,1.76373 -11.20901,3.71084 -10.28486,5.14735 -5.72336,3.75616 -8.28234,6.89254 -5.30248,5.59489 -4.02823,5.09093 -5.77619,9.13215 -4.23034,8.9035 -1.02647,2.62235 -3.00726,9.54535 -1.29281,5.63931 -1.44766,9.4184 -0.61084,8.48651 0.008,8.89567 0.62,8.81343 1.58893,11.02948 2.46889,11.07821 2.65224,9.05457 4.03376,11.12938 3.84319,8.90351 4.55541,9.20034 4.93686,8.81086 6.45263,10.21903 6.81415,9.60966 7.0004,8.9035 8.37269,9.63487 7.80034,8.17214 14.33088,13.41144 L 500,488.8358 l 16.64788,12.26966 18.85169,12.64479 17.74979,12.05302 6.51431,5.35899 3.26996,3.53944 1.67661,2.76974 0.37878,0.5964 0.0461,-0.22795 1.42655,-2.58501 3.67421,-4.09262 5.31226,-4.45175 8.76332,-6.22822 L 614.9281,500 l 15.56047,-11.54683 11.50972,-9.46581 7.69535,-6.88121 10.05444,-9.79997 9.9113,-10.75557 9.75724,-11.95019 7.45558,-10.32739 6.05389,-9.40456 5.79133,-10.15858 4.48131,-8.94751 3.94966,-9.02057 3.17252,-8.40592 2.67653,-8.3743 2.22416,-8.51414 1.78309,-8.9035 1.15382,-8.33504 0.68344,-9.47197 0.0722,-5.93561 -0.23055,-6.1669 -1.17057,-10.56942 -2.92444,-12.94209 -3.127,-8.9035 -4.23053,-8.9035 -5.6101,-8.90351 -7.46935,-8.9035 -10.3097,-8.9035 -9.41618,-5.82146 -6.59209,-3.08205 -8.08556,-2.85324 -12.25563,-2.65863 -5.49416,-0.61058 -6.39338,-0.29154 -5.62749,0.10175 -8.79505,0.80932 -7.03894,1.21279 -9.48975,2.43915 -7.97925,2.80344 -7.9255,3.53931 -8.48917,4.79871 -5.75274,4.06478 -5.7266,5.21557 -2.58971,3.31575 -0.93508,1.79056"
           stroke-linecap="round"
           stroke-linejoin="round"
           stroke-miterlimit="10"
           stroke-width="10"
           stroke-opacity="0.9"
           stroke-dasharray="none"
           id="path1280" />
      </g>
      <g
         id="g1286">
        <path
           fill="none"
           stroke="#000000"
           class="dcg-svg-curve"
           paint-order="fill stroke markers"
           d="m 565.00263,275.20407 v 0 l -0.13782,-0.54104 -0.82899,-1.70237 -1.91157,-2.65495 -2.79406,-2.95118 -3.83727,-3.29737 -6.68101,-4.64939 -8.46856,-4.66175 -6.14368,-2.74002 -8.43238,-3.02441 -8.0175,-2.15845 -9.17371,-1.6572 L 500,244.3887 l -11.61737,0.16102 -6.13242,0.67761"
           stroke-linecap="round"
           stroke-linejoin="round"
           stroke-miterlimit="10"
           stroke-width="10"
           stroke-opacity="0.9"
           stroke-dasharray="none"
           id="path1284" />
      </g>
    </g>
    <g
       id="g1304"
       transform="matrix(0.63166544,0,0,0.63166544,9.2083637,9.2144605)">
      <title
         id="title1290">Expression 6</title>
      <path
         fill="#000000"
         stroke="none"
         paint-order="stroke fill markers"
         d=""
         fill-opacity="0.4"
         id="path1292" />
      <path
         fill="#000000"
         stroke="none"
         paint-order="stroke fill markers"
         d=""
         fill-opacity="0.4"
         id="path1294" />
      <g
         id="g1298">
        <path
           fill="none"
           stroke="#000000"
           class="dcg-svg-curve"
           paint-order="fill stroke markers"
           d="m 30,500.00001 v 0 l 0.370235,18.65165 0.9861,17.02908 1.479149,15.86841 1.972198,15.50387 2.465248,15.30995 2.958298,15.16998 3.451347,15.04772 3.944397,14.92872 4.437447,14.80616 4.930496,14.67647 5.423546,14.53756 5.916595,14.38808 6.65617,14.75008 7.14922,14.49125 7.642269,14.23538 8.135319,13.97796 8.874896,14.09261 9.36794,13.76839 9.86099,13.44254 10.60057,13.41261 11.34014,13.31102 11.83319,12.88599 12.57277,12.69762 13.31234,12.44998 14.05191,12.14622 14.79149,11.78861 15.77759,11.55144 16.27063,10.90194 16.27064,9.95773 16.51716,9.21268 16.76369,8.48741 16.76369,7.66932 17.01021,6.98997 17.01021,6.22953 17.25674,5.57517 17.25674,4.85262 17.50326,4.20733 17.50326,3.50719 17.50326,2.82289 17.50326,2.15098 17.50326,1.48831 17.50327,0.83195 17.50326,0.17907 17.50326,-0.47307 17.50326,-1.12718 17.50326,-1.78602 17.50326,-2.45249 17.50326,-3.12957 17.25674,-3.76189 17.25674,-4.45029 17.25674,-5.15921 17.01021,-5.80351 17.01021,-6.54496 16.76369,-7.20862 16.76368,-8.00054 16.51717,-8.70236 16.27063,-9.41937 16.02412,-10.15739 15.77758,-10.92334 15.53107,-11.72566 15.03801,-12.3634 14.05191,-12.54626 13.31234,-12.87228 12.57277,-13.14505 11.83319,-13.3616 11.09362,-13.51782 10.35404,-13.60823 9.86099,-13.98884 9.12142,-13.98165 8.62837,-14.31272 7.88879,-14.18778 7.39575,-14.45505 6.90269,-14.72571 6.16312,-14.40137 5.67007,-14.57252 5.17702,-14.73758 4.68397,-14.89993 4.19093,-15.06506 3.69787,-15.24245 3.20482,-15.44996 2.71177,-15.72516 1.9722,-14.13761 1.72568,-16.20661 0.98609,-13.1798 0.49305,-9.82188 L 970,500.00001"
           stroke-linecap="round"
           stroke-linejoin="round"
           stroke-miterlimit="10"
           stroke-width="10"
           stroke-opacity="0.9"
           stroke-dasharray="none"
           id="path1296" />
      </g>
      <g
         id="g1302">
        <path
           fill="none"
           stroke="#000000"
           class="dcg-svg-curve"
           paint-order="fill stroke markers"
           d="m 30,499.99999 v 0 l 0.370235,-18.65165 0.9861,-17.02908 1.479149,-15.86841 1.972198,-15.50387 2.465248,-15.30995 2.958298,-15.16998 3.451347,-15.04772 3.944397,-14.92872 4.437447,-14.80616 4.930496,-14.67647 5.423546,-14.53756 5.916595,-14.38808 6.65617,-14.75008 7.14922,-14.49125 7.642269,-14.23538 8.135319,-13.97796 8.874896,-14.09261 9.36794,-13.76839 9.86099,-13.44254 10.60057,-13.41261 11.34014,-13.31102 11.83319,-12.88599 12.57277,-12.69762 13.31234,-12.44998 14.05191,-12.14622 14.79149,-11.78861 15.77759,-11.55144 16.27063,-10.90194 16.27064,-9.957728 16.51716,-9.212683 16.76369,-8.487414 16.76369,-7.669313 17.01021,-6.989975 17.01021,-6.229529 17.25674,-5.575173 17.25674,-4.852614 17.50326,-4.207331 17.50326,-3.507195 17.50326,-2.822888 17.50326,-2.150978 17.50326,-1.488313 17.50327,-0.831948 17.50326,-0.179066 17.50326,0.473067 17.50326,1.127177 17.50326,1.786027 17.50326,2.452483 17.50326,3.129576 17.25674,3.761886 17.25674,4.450288 17.25674,5.159219 17.01021,5.803504 17.01021,6.544962 16.76369,7.208621 16.76368,8.000535 16.51717,8.702359 16.27063,9.419375 16.02412,10.157389 15.77758,10.92334 15.53107,11.72566 15.03801,12.3634 14.05191,12.54626 13.31234,12.87228 12.57277,13.14505 11.83319,13.3616 11.09362,13.51782 10.35404,13.60823 9.86099,13.98884 9.12142,13.98165 8.62837,14.31272 7.88879,14.18778 7.39575,14.45505 6.90269,14.72571 6.16312,14.40137 5.67007,14.57252 5.17702,14.73758 4.68397,14.89993 4.19093,15.06506 3.69787,15.24245 3.20482,15.44996 2.71177,15.72516 1.9722,14.13761 1.72568,16.20661 0.98609,13.1798 0.49305,9.82188 L 970,499.99999"
           stroke-linecap="round"
           stroke-linejoin="round"
           stroke-miterlimit="10"
           stroke-width="10"
           stroke-opacity="0.9"
           stroke-dasharray="none"
           id="path1300" />
      </g>
    </g>
    <g
       id="labels-ccd80bdb" />
    <g
       aria-label="【彳▼亍 ▼てきちょく】"
       id="text2507"
       style="font-size:53.1271px;line-height:1.25;stroke-width:1.32818">
      <path
         d="m 800.1566,77.350758 v -1.27505 H 719.06342 V 318.3352 h 81.09318 v -1.27505 c -27.79609,-23.97094 -50.49198,-67.06763 -50.49198,-119.85469 0,-52.78707 22.69589,-95.88376 50.49198,-119.854702 z"
         style="font-weight:900;font-size:255.01px;font-family:'Source Han Sans';-inkscape-font-specification:'Source Han Sans, Heavy'"
         id="path2069" />
      <path
         d="m 963.10749,75.820698 c -22.44088,29.836172 -68.8527,67.322642 -115.77453,89.763522 l 2.04008,3.06012 c 55.33716,-13.51553 106.84918,-41.31162 137.19537,-67.06763 5.35521,1.78507 8.16032,0.51002 9.94539,-1.785073 z m 20.65581,49.726952 c -27.54108,37.74148 -84.40831,84.91832 -143.31561,112.71441 l 1.78507,3.06012 c 29.32615,-7.6503 57.12223,-18.87074 82.11321,-31.87625 v 107.1042 h 5.86523 c 11.22044,0 24.73597,-4.84519 24.99098,-6.63026 V 201.79563 c 4.84519,-0.76503 7.14028,-2.5501 8.16032,-5.10019 l -10.2004,-3.57014 c 21.42084,-13.26052 39.27154,-27.28607 53.5521,-41.05661 5.8652,1.78507 8.9254,0.51002 10.4554,-1.78507 z"
         style="font-weight:bold;font-family:'Source Han Serif';-inkscape-font-specification:'Source Han Serif, Bold'"
         id="path2071" />
      <path
         d="m 1308.9006,103.36178 h -239.7094 l 119.8547,207.57813 z"
         style="font-weight:900;font-size:255.01px;font-family:'Source Han Sans';-inkscape-font-specification:'Source Han Sans, Heavy'"
         id="path2073" />
      <path
         d="m 1355.0569,93.926407 v 37.486473 h 179.272 V 93.926407 Z m -25.756,65.537573 v 38.2515 h 97.6688 v 78.79808 c 0,4.33517 -2.0401,5.35521 -7.3953,5.35521 -5.8652,0.25501 -27.7961,0.25501 -43.3517,-0.76503 5.8652,10.2004 12.7505,27.03106 15.0456,37.99649 23.2059,0 42.3316,-0.51002 56.6122,-6.12024 14.5356,-5.61022 19.1258,-15.3006 19.1258,-35.44639 v -79.81812 h 92.0586 v -38.2515 z"
         style="font-weight:900;font-size:255.01px;font-family:'Source Han Sans';-inkscape-font-specification:'Source Han Sans, Heavy'"
         id="path2075" />
      <path
         d="M 1877.3164,103.36178 H 1637.607 l 119.8547,207.57813 z"
         style="font-weight:900;font-size:255.01px;font-family:'Source Han Sans';-inkscape-font-specification:'Source Han Sans, Heavy'"
         id="path2077" />
      <path
         d="m 1901.2868,115.34725 3.8252,42.07665 c 30.6012,-6.88527 75.4829,-11.98547 97.4138,-14.28056 -13.7705,12.49549 -32.3863,39.52655 -32.3863,74.46291 0,54.31713 48.7069,85.17334 105.5742,89.50851 l 14.5355,-42.84168 c -44.1167,-2.5501 -79.3081,-17.34068 -79.3081,-54.82715 0,-30.34618 23.716,-60.18235 51.257,-66.30259 14.0256,-2.80511 35.7014,-2.80511 48.962,-3.06012 l -0.2551,-39.78156 c -18.6157,0.76503 -48.7069,2.5501 -74.2079,4.59018 -46.6668,4.08016 -85.1733,7.14028 -109.1442,9.18036 -4.8452,0.51002 -16.0657,1.02004 -26.2661,1.27505 z"
         style="font-weight:900;font-size:255.01px;font-family:'Source Han Sans';-inkscape-font-specification:'Source Han Sans, Heavy'"
         id="path2079" />
      <path
         d="m 2223.3638,222.19643 -38.2515,-7.14028 c -6.1203,12.49549 -12.2405,26.01102 -11.7305,43.60671 0.765,38.2515 34.4264,53.5521 85.9384,53.5521 20.4008,0 45.6468,-2.04008 63.4975,-4.84519 l 2.2951,-39.27154 c -18.1058,3.57014 -41.5667,5.61022 -65.7926,5.61022 -30.3462,0 -47.6869,-6.12024 -47.6869,-23.71593 0,-10.71042 5.6102,-19.63577 11.7305,-27.79609 z m -55.5922,-61.71241 2.0401,36.21142 c 37.9965,2.29508 78.7981,2.29508 110.1643,0.51002 3.3151,6.88526 6.8853,13.77053 10.9654,20.91081 -7.1403,-0.51002 -19.6358,-1.53006 -28.5611,-2.29509 l -3.0601,29.32615 c 19.1257,2.04008 48.9619,5.61022 63.2425,8.16032 l 18.1057,-27.79609 c -5.1002,-4.84519 -8.6704,-8.92535 -12.4955,-14.53557 -3.3152,-5.1002 -6.8853,-11.22044 -10.2004,-17.59568 13.5155,-2.04008 26.011,-4.33517 37.4864,-7.14028 l -6.1202,-36.46643 c -12.4955,3.57014 -27.0311,7.39529 -47.4319,10.2004 l -3.5701,-9.69038 -2.8051,-8.92535 c 16.0656,-2.04008 31.3662,-5.1002 45.1368,-8.92535 l -4.8452,-35.191383 c -16.3207,5.100203 -32.1313,8.670343 -48.9619,10.710423 -1.5301,-7.90531 -3.0602,-16.065633 -4.0802,-24.990983 l -41.3116,4.33517 c 2.8051,8.16032 5.3552,15.810623 7.6503,23.205913 -22.4409,0.51002 -47.1769,-0.76503 -77.013,-4.08016 l 2.04,35.19138 c 32.1313,3.06012 60.9474,3.57014 84.9184,2.5501 l 4.0801,12.49549 2.2951,6.37525 c -27.5411,1.27505 -60.1823,0.76503 -97.6688,-2.5501 z"
         style="font-weight:900;font-size:255.01px;font-family:'Source Han Sans';-inkscape-font-specification:'Source Han Sans, Heavy'"
         id="path2081" />
      <path
         d="m 2455.1674,99.281617 c 6.6302,2.040083 10.9654,3.825153 15.0456,6.120243 4.0801,2.5501 5.3552,3.82515 4.5901,10.2004 -0.51,6.12024 -2.04,16.06563 -4.3351,27.03106 -5.3552,0.76503 -10.9655,1.02004 -16.3207,1.02004 -16.0656,0 -28.3061,-4.84519 -40.8016,-16.57565 l -3.5701,2.29509 c 10.4554,29.83617 20.6558,35.7014 42.8417,35.7014 4.3351,0 8.9253,-0.25501 13.2605,-0.51002 -5.1002,21.93086 -13.2605,54.57213 -18.8707,65.02754 -3.8252,7.39529 -5.8653,8.41533 -5.8653,12.24048 0,10.71042 8.4154,25.501 16.5757,25.501 7.9053,0 10.4554,-9.94539 15.5556,-16.06563 16.3206,-19.63577 45.6468,-48.4519 72.9328,-48.4519 21.4209,0 32.8963,15.55561 32.8963,32.64128 0,19.12575 -10.7104,39.52655 -48.1969,53.04208 -17.5956,6.88527 -36.4664,10.96543 -55.5921,12.49549 l 0.51,5.35521 c 64.7725,6.12024 132.3502,-11.98547 132.3502,-62.22244 0,-27.28607 -18.8708,-52.02203 -59.4174,-52.02203 -25.2459,0 -45.6467,10.20039 -71.4028,26.01101 -3.0601,2.29509 -3.5701,1.53006 -2.5501,-1.78507 2.5501,-9.43537 9.4354,-34.17133 14.5356,-54.06211 27.5411,-4.08016 51.512,-11.47545 62.4775,-15.81062 11.4754,-4.33517 16.5756,-9.18036 16.5756,-15.81062 0,-10.71042 -15.8106,-12.24048 -22.6959,-12.24048 -2.5501,0 -6.6302,2.5501 -16.5756,7.90531 -8.4154,4.33517 -20.4008,8.67034 -33.6613,11.98547 1.275,-4.84519 2.5501,-9.18036 3.5701,-13.00551 3.0601,-10.71042 8.9253,-12.7505 8.9253,-19.63577 0,-6.885273 -16.8306,-15.045593 -34.1713,-15.045593 -6.1202,0 -11.7305,1.78507 -18.6157,4.84519 z"
         style="font-weight:bold;font-family:'Source Han Serif';-inkscape-font-specification:'Source Han Serif, Bold'"
         id="path2083" />
      <path
         d="m 2733.3829,289.77408 c -10.2004,0 -18.1057,-3.82515 -18.1057,-10.71042 0,-6.88527 9.6904,-14.02555 28.0511,-14.02555 7.1403,0 13.5155,0.76503 19.3808,2.04008 -0.51,16.32064 -10.9655,22.69589 -29.3262,22.69589 z m 5.6102,-134.90028 c 3.5702,0.76503 10.4555,2.29509 15.0456,4.84519 3.0602,1.53006 4.3352,3.31513 4.8452,6.88527 0.7651,5.61022 1.5301,37.74147 2.0401,47.43185 0.51,10.2004 1.2751,20.65581 1.5301,35.7014 -1.5301,0 -3.0602,0 -4.8452,0 -29.0712,0 -52.7871,10.2004 -52.7871,32.13126 0,18.10571 16.8307,27.79609 39.0165,27.79609 32.8963,0 40.0366,-15.55561 40.0366,-30.6012 0,-1.53006 0,-3.06012 -0.255,-4.59018 2.8051,1.27505 5.3552,2.80511 7.6503,4.08016 18.6157,10.96543 26.266,24.99098 36.9764,24.99098 5.8653,0 9.9454,-3.31513 9.9454,-10.71042 0,-13.26052 -14.2805,-24.22595 -29.3261,-31.36623 -6.8853,-3.31513 -16.5757,-7.14028 -28.5611,-9.43537 -1.0201,-11.98547 -1.5301,-23.46092 -1.5301,-31.62124 0,-4.33517 0.255,-11.47545 1.02,-19.12575 5.6103,3.31513 12.2405,6.63026 17.8507,6.63026 12.7505,0 26.0111,-4.08016 30.3462,-5.86523 5.8653,-2.5501 7.6503,-5.61021 7.6503,-9.94538 0,-9.94539 -12.4955,-12.24048 -19.8907,-12.24048 -1.0201,0 -4.8452,2.80511 -11.7305,5.35521 -7.6503,3.06012 -18.1057,5.1002 -23.2059,5.35521 0.765,-6.37525 1.7851,-12.24048 2.8051,-15.04559 1.5301,-5.1002 5.3552,-7.14028 5.3552,-11.98547 0,-7.90531 -15.3006,-18.36072 -29.8362,-18.36072 -7.3953,0 -15.0456,4.08016 -20.4008,7.90531 z"
         style="font-weight:bold;font-family:'Source Han Serif';-inkscape-font-specification:'Source Han Serif, Bold'"
         id="path2085" />
      <path
         d="m 3032.5092,107.95196 c 0,3.57014 -1.5301,6.37525 -5.3552,11.22044 -9.9454,13.00551 -46.6669,51.25701 -60.1824,67.83266 -5.3552,6.37525 -7.3953,10.96543 -7.3953,16.32063 0,4.84519 2.8051,11.22044 9.1804,16.32064 29.8361,25.501 49.7269,45.13677 59.6723,61.2024 6.8853,10.96543 9.6904,16.83066 12.7505,22.44088 3.0601,4.84519 8.1603,9.18036 15.0456,9.18036 13.2605,0 17.5957,-9.43537 17.5957,-17.59569 0,-8.67034 -3.0601,-17.08567 -11.9855,-28.30611 -17.3407,-21.93086 -45.9018,-38.50651 -70.3827,-55.84719 -5.3552,-3.57014 -9.1804,-7.14028 -9.1804,-10.71042 0,-3.31512 2.5501,-6.63025 9.1804,-13.26051 10.7104,-10.71042 41.0566,-34.93637 59.6723,-47.94188 10.9654,-7.39529 18.8707,-9.43537 18.8707,-17.59569 0,-8.92535 -11.9854,-23.715933 -26.521,-31.111223 -6.3752,-3.06012 -13.5155,-4.08016 -21.4208,-4.84519 l -2.5501,3.82515 c 7.3953,6.63026 13.0055,13.260523 13.0055,18.870743 z"
         style="font-weight:bold;font-family:'Source Han Serif';-inkscape-font-specification:'Source Han Serif, Bold'"
         id="path2087" />
      <path
         d="M 3239.8316,318.3352 V 76.075708 h -81.0932 v 1.27505 c 27.7961,23.970942 50.492,67.067632 50.492,119.854702 0,52.78706 -22.6959,95.88375 -50.492,119.85469 v 1.27505 z"
         style="font-weight:900;font-size:255.01px;font-family:'Source Han Sans';-inkscape-font-specification:'Source Han Sans, Heavy'"
         id="path2089" />
    </g>
    <g
       aria-label="@TETH_Main"
       id="text10851"
       style="font-size:53.1271px;line-height:1.25;stroke-width:1.32818">
      <path
         d="m 778.06579,558.34169 c 13.79536,0 25.90835,-2.69177 37.68487,-9.08474 l -6.39297,-16.15065 c -7.73886,4.03766 -19.1789,7.23414 -28.93659,7.23414 -29.60954,0 -56.19082,-17.83301 -56.19082,-55.85435 0,-43.06841 32.63778,-70.99559 65.27556,-70.99559 38.18957,0 52.65787,24.89893 52.65787,51.98493 0,20.52479 -11.27181,33.98367 -22.8801,33.98367 -8.24356,0 -11.10357,-5.04708 -8.4118,-15.81419 l 8.91651,-42.90017 h -18.16949 l -3.02824,8.07532 h -0.33648 c -3.19648,-6.72944 -8.24356,-9.58945 -14.46829,-9.58945 -22.03892,0 -39.19899,23.55304 -39.19899,47.44255 0,17.66478 10.2624,29.27306 25.57187,29.27306 7.90709,0 18.00125,-5.21531 23.21657,-12.78593 h 0.50471 c 2.01883,9.42121 11.27181,14.63653 22.37538,14.63653 20.5248,0 44.41431,-17.66478 44.41431,-53.16257 0,-40.54488 -26.74953,-69.145 -68.64029,-69.145 -47.77902,0 -87.81919,35.66603 -87.81919,89.83802 0,49.79786 35.16133,73.01442 73.8556,73.01442 z m -1.34588,-61.06966 c -6.0565,0 -9.75769,-4.2059 -9.75769,-12.28123 0,-11.10357 6.89767,-26.74952 17.83301,-26.74952 3.86943,0 6.72944,1.85059 8.58004,5.38355 l -4.54237,25.2354 c -4.71061,6.22473 -8.24357,8.4118 -12.11299,8.4118 z"
         style="font-weight:900;font-size:168.236px;font-family:'Source Han Sans';-inkscape-font-specification:'Source Han Sans, Heavy'"
         id="path3229" />
      <path
         d="m 908.7849,524.86273 h 30.11424 V 424.59408 h 33.98367 v -25.06716 h -97.91334 v 25.06716 h 33.81543 z"
         style="font-weight:900;font-size:168.236px;font-family:'Source Han Sans';-inkscape-font-specification:'Source Han Sans, Heavy'"
         id="path3231" />
      <path
         d="m 992.22983,524.86273 h 81.25797 v -25.2354 h -51.1437 v -26.58128 h 41.8907 v -25.2354 h -41.8907 v -23.21657 h 49.2931 v -25.06716 h -79.40737 z"
         style="font-weight:900;font-size:168.236px;font-family:'Source Han Sans';-inkscape-font-specification:'Source Han Sans, Heavy'"
         id="path3233" />
      <path
         d="m 1122.4444,524.86273 h 30.1142 V 424.59408 h 33.9837 v -25.06716 h -97.9134 v 25.06716 h 33.8155 z"
         style="font-weight:900;font-size:168.236px;font-family:'Source Han Sans';-inkscape-font-specification:'Source Han Sans, Heavy'"
         id="path3235" />
      <path
         d="m 1205.8893,524.86273 h 30.1143 v -51.48021 h 41.2178 v 51.48021 h 29.946 V 399.52692 h -29.946 v 47.77902 h -41.2178 v -47.77902 h -30.1143 z"
         style="font-weight:900;font-size:168.236px;font-family:'Source Han Sans';-inkscape-font-specification:'Source Han Sans, Heavy'"
         id="path3237" />
      <path
         d="m 1323.9907,552.2852 h 91.5204 v -16.65536 h -91.5204 z"
         style="font-weight:900;font-size:168.236px;font-family:'Source Han Sans';-inkscape-font-specification:'Source Han Sans, Heavy'"
         id="path3239" />
      <path
         d="m 1432.3344,524.86273 h 26.9178 v -42.90018 c 0,-12.44946 -2.3553,-31.12365 -3.8694,-43.40488 h 0.6729 l 10.0942,29.946 16.9918,45.76019 h 16.4871 l 16.8236,-45.76019 10.4307,-29.946 h 0.8412 c -1.6824,12.28123 -4.0377,30.95542 -4.0377,43.40488 v 42.90018 h 27.4225 V 399.52692 h -32.6378 l -19.1789,54.17199 c -2.3553,7.23414 -4.3742,15.14124 -6.8977,22.71186 h -0.8412 c -2.3553,-7.57062 -4.3741,-15.47772 -6.8977,-22.71186 l -19.8518,-54.17199 h -32.4696 z"
         style="font-weight:900;font-size:168.236px;font-family:'Source Han Sans';-inkscape-font-specification:'Source Han Sans, Heavy'"
         id="path3241" />
      <path
         d="m 1601.7479,527.21804 c 10.5989,0 19.5154,-4.87885 27.4225,-11.94476 h 0.8412 l 2.0188,9.58945 h 24.3942 v -54.34022 c 0,-29.94601 -13.9636,-43.74136 -38.6943,-43.74136 -14.973,0 -28.6001,5.04708 -41.2178,12.6177 l 10.4306,19.68361 c 9.5895,-5.38355 17.4966,-8.4118 25.0672,-8.4118 9.7577,0 13.7954,4.54237 14.4683,12.28123 -37.3484,4.03766 -53.1626,14.973 -53.1626,35.16132 0,15.98242 10.7671,29.10483 28.4319,29.10483 z m 10.2624,-23.21657 c -6.2247,0 -10.2624,-2.69178 -10.2624,-8.24356 0,-6.72944 6.0565,-12.28123 24.7307,-14.63654 v 15.30948 c -4.3741,4.71061 -8.4118,7.57062 -14.4683,7.57062 z"
         style="font-weight:900;font-size:168.236px;font-family:'Source Han Sans';-inkscape-font-specification:'Source Han Sans, Heavy'"
         id="path3243" />
      <path
         d="m 1679.4727,524.86273 h 29.946 v -95.72628 h -29.946 z m 14.973,-109.01692 c 9.926,0 16.6554,-6.0565 16.6554,-15.47771 0,-9.25298 -6.7294,-15.30948 -16.6554,-15.30948 -10.0941,0 -16.6553,6.0565 -16.6553,15.30948 0,9.42121 6.5612,15.47771 16.6553,15.47771 z"
         style="font-weight:900;font-size:168.236px;font-family:'Source Han Sans';-inkscape-font-specification:'Source Han Sans, Heavy'"
         id="path3245" />
      <path
         d="m 1733.4763,524.86273 h 29.946 v -63.92968 c 5.7201,-5.55178 9.7577,-8.58003 16.4872,-8.58003 7.5706,0 11.1035,3.70119 11.1035,16.99183 v 55.51788 h 29.946 v -59.21907 c 0,-23.88951 -8.9165,-38.86251 -29.7777,-38.86251 -12.9542,0 -22.7119,6.5612 -30.619,14.30006 h -0.5047 l -2.187,-11.94476 h -24.3943 z"
         style="font-weight:900;font-size:168.236px;font-family:'Source Han Sans';-inkscape-font-specification:'Source Han Sans, Heavy'"
         id="path3247" />
    </g>
  </g>
</svg>
